<svg width="301" height="93" viewBox="0 0 301 93" fill="none" xmlns="http://www.w3.org/2000/svg">
<path d="M18.236 5.611C18.11 5.821 17.97 5.982 17.816 6.094C17.676 6.192 17.501 6.241 17.291 6.241C17.053 6.241 16.773 6.122 16.451 5.884C16.129 5.646 15.723 5.387 15.233 5.107C14.757 4.813 14.176 4.547 13.49 4.309C12.818 4.071 11.999 3.952 11.033 3.952C10.123 3.952 9.318 4.078 8.618 4.33C7.932 4.568 7.351 4.897 6.875 5.317C6.413 5.737 6.063 6.234 5.825 6.808C5.587 7.368 5.468 7.977 5.468 8.635C5.468 9.475 5.671 10.175 6.077 10.735C6.497 11.281 7.043 11.75 7.715 12.142C8.401 12.534 9.171 12.877 10.025 13.171C10.893 13.451 11.775 13.745 12.671 14.053C13.581 14.361 14.463 14.711 15.317 15.103C16.185 15.481 16.955 15.964 17.627 16.552C18.313 17.14 18.859 17.861 19.265 18.715C19.685 19.569 19.895 20.619 19.895 21.865C19.895 23.181 19.671 24.42 19.223 25.582C18.775 26.73 18.117 27.731 17.249 28.585C16.395 29.439 15.338 30.111 14.078 30.601C12.832 31.091 11.411 31.336 9.815 31.336C7.855 31.336 6.077 30.986 4.481 30.286C2.885 29.572 1.52 28.613 0.386 27.409L1.562 25.477C1.674 25.323 1.807 25.197 1.961 25.099C2.129 24.987 2.311 24.931 2.507 24.931C2.689 24.931 2.892 25.008 3.116 25.162C3.354 25.302 3.62 25.484 3.914 25.708C4.208 25.932 4.544 26.177 4.922 26.443C5.3 26.709 5.727 26.954 6.203 27.178C6.693 27.402 7.246 27.591 7.862 27.745C8.478 27.885 9.171 27.955 9.941 27.955C10.907 27.955 11.768 27.822 12.524 27.556C13.28 27.29 13.917 26.919 14.435 26.443C14.967 25.953 15.373 25.372 15.653 24.7C15.933 24.028 16.073 23.279 16.073 22.453C16.073 21.543 15.863 20.801 15.443 20.227C15.037 19.639 14.498 19.149 13.826 18.757C13.154 18.365 12.384 18.036 11.516 17.77C10.648 17.49 9.766 17.21 8.87 16.93C7.974 16.636 7.092 16.3 6.224 15.922C5.356 15.544 4.586 15.054 3.914 14.452C3.242 13.85 2.696 13.101 2.276 12.205C1.87 11.295 1.667 10.175 1.667 8.845C1.667 7.781 1.87 6.752 2.276 5.758C2.696 4.764 3.298 3.882 4.082 3.112C4.88 2.342 5.853 1.726 7.001 1.264C8.163 0.801998 9.493 0.570997 10.991 0.570997C12.671 0.570997 14.197 0.836998 15.569 1.369C16.955 1.901 18.173 2.671 19.223 3.679L18.236 5.611ZM30.3533 31.336C28.6733 31.336 27.3783 30.867 26.4683 29.929C25.5723 28.991 25.1243 27.64 25.1243 25.876V12.856H22.5623C22.3383 12.856 22.1493 12.793 21.9953 12.667C21.8413 12.527 21.7643 12.317 21.7643 12.037V10.546L25.2503 10.105L26.1113 3.532C26.1533 3.322 26.2443 3.154 26.3843 3.028C26.5383 2.888 26.7343 2.818 26.9723 2.818H28.8623V10.147H35.0153V12.856H28.8623V25.624C28.8623 26.52 29.0793 27.185 29.5133 27.619C29.9473 28.053 30.5073 28.27 31.1933 28.27C31.5853 28.27 31.9213 28.221 32.2013 28.123C32.4953 28.011 32.7473 27.892 32.9573 27.766C33.1673 27.64 33.3423 27.528 33.4823 27.43C33.6363 27.318 33.7693 27.262 33.8813 27.262C34.0773 27.262 34.2523 27.381 34.4063 27.619L35.4983 29.404C34.8543 30.006 34.0773 30.482 33.1673 30.832C32.2573 31.168 31.3193 31.336 30.3533 31.336ZM50.4041 21.424C48.6821 21.48 47.2121 21.62 45.9941 21.844C44.7901 22.054 43.8031 22.334 43.0331 22.684C42.2771 23.034 41.7241 23.447 41.3741 23.923C41.0381 24.399 40.8701 24.931 40.8701 25.519C40.8701 26.079 40.9611 26.562 41.1431 26.968C41.3251 27.374 41.5701 27.71 41.8781 27.976C42.2001 28.228 42.5711 28.417 42.9911 28.543C43.4251 28.655 43.8871 28.711 44.3771 28.711C45.0351 28.711 45.6371 28.648 46.1831 28.522C46.7291 28.382 47.2401 28.186 47.7161 27.934C48.2061 27.682 48.6681 27.381 49.1021 27.031C49.5501 26.681 49.9841 26.282 50.4041 25.834V21.424ZM38.3291 12.73C39.5051 11.596 40.7721 10.749 42.1301 10.189C43.4881 9.629 44.9931 9.349 46.6451 9.349C47.8351 9.349 48.8921 9.545 49.8161 9.937C50.7401 10.329 51.5171 10.875 52.1471 11.575C52.7771 12.275 53.2531 13.122 53.5751 14.116C53.8971 15.11 54.0581 16.202 54.0581 17.392V31H52.3991C52.0351 31 51.7551 30.944 51.5591 30.832C51.3631 30.706 51.2091 30.468 51.0971 30.118L50.6771 28.102C50.1171 28.62 49.5711 29.082 49.0391 29.488C48.5071 29.88 47.9471 30.216 47.3591 30.496C46.7711 30.762 46.1411 30.965 45.4691 31.105C44.8111 31.259 44.0761 31.336 43.2641 31.336C42.4381 31.336 41.6611 31.224 40.9331 31C40.2051 30.762 39.5681 30.412 39.0221 29.95C38.4901 29.488 38.0631 28.907 37.7411 28.207C37.4331 27.493 37.2791 26.653 37.2791 25.687C37.2791 24.847 37.5101 24.042 37.9721 23.272C38.4341 22.488 39.1831 21.795 40.2191 21.193C41.2551 20.591 42.6061 20.101 44.2721 19.723C45.9381 19.331 47.9821 19.107 50.4041 19.051V17.392C50.4041 15.74 50.0471 14.494 49.3331 13.654C48.6191 12.8 47.5761 12.373 46.2041 12.373C45.2801 12.373 44.5031 12.492 43.8731 12.73C43.2571 12.954 42.7181 13.213 42.2561 13.507C41.8081 13.787 41.4161 14.046 41.0801 14.284C40.7581 14.508 40.4361 14.62 40.1141 14.62C39.8621 14.62 39.6451 14.557 39.4631 14.431C39.2811 14.291 39.1271 14.123 39.0011 13.927L38.3291 12.73ZM79.2049 31H75.4669V12.856H64.5049V25.624C64.5049 26.52 64.7219 27.185 65.1559 27.619C65.5899 28.053 66.1499 28.27 66.8359 28.27C67.2279 28.27 67.5639 28.221 67.8439 28.123C68.1379 28.011 68.3899 27.892 68.5999 27.766C68.8099 27.64 68.9849 27.528 69.1249 27.43C69.2789 27.318 69.4119 27.262 69.5239 27.262C69.7199 27.262 69.8949 27.381 70.0489 27.619L71.1409 29.404C70.4969 30.006 69.7199 30.482 68.8099 30.832C67.8999 31.168 66.9619 31.336 65.9959 31.336C64.3159 31.336 63.0209 30.867 62.1109 29.929C61.2149 28.991 60.7669 27.64 60.7669 25.876V12.856H58.2049C57.9809 12.856 57.7919 12.793 57.6379 12.667C57.4839 12.527 57.4069 12.317 57.4069 12.037V10.546L60.8929 10.084L61.7539 3.532C61.7959 3.322 61.8869 3.154 62.0269 3.028C62.1809 2.888 62.3769 2.818 62.6149 2.818H64.5049V10.147H79.2049V31ZM80.1289 2.902C80.1289 3.266 80.0519 3.609 79.8979 3.931C79.7579 4.239 79.5619 4.512 79.3099 4.75C79.0719 4.988 78.7919 5.177 78.4699 5.317C78.1479 5.457 77.8049 5.527 77.4409 5.527C77.0769 5.527 76.7339 5.457 76.4119 5.317C76.1039 5.177 75.8309 4.988 75.5929 4.75C75.3549 4.512 75.1659 4.239 75.0259 3.931C74.8859 3.609 74.8159 3.266 74.8159 2.902C74.8159 2.538 74.8859 2.195 75.0259 1.873C75.1659 1.537 75.3549 1.25 75.5929 1.012C75.8309 0.759998 76.1039 0.563998 76.4119 0.423998C76.7339 0.283998 77.0769 0.213998 77.4409 0.213998C77.8049 0.213998 78.1479 0.283998 78.4699 0.423998C78.7919 0.563998 79.0719 0.759998 79.3099 1.012C79.5619 1.25 79.7579 1.537 79.8979 1.873C80.0519 2.195 80.1289 2.538 80.1289 2.902ZM99.5838 18.043C99.5838 17.175 99.4578 16.384 99.2058 15.67C98.9678 14.942 98.6108 14.319 98.1348 13.801C97.6728 13.269 97.1058 12.863 96.4338 12.583C95.7618 12.289 94.9988 12.142 94.1448 12.142C92.3528 12.142 90.9318 12.667 89.8818 13.717C88.8458 14.753 88.2018 16.195 87.9498 18.043H99.5838ZM102.608 28.018C102.146 28.578 101.593 29.068 100.949 29.488C100.305 29.894 99.6118 30.23 98.8698 30.496C98.1418 30.762 97.3858 30.958 96.6018 31.084C95.8178 31.224 95.0408 31.294 94.2708 31.294C92.8008 31.294 91.4428 31.049 90.1968 30.559C88.9648 30.055 87.8938 29.327 86.9838 28.375C86.0878 27.409 85.3878 26.219 84.8838 24.805C84.3798 23.391 84.1278 21.767 84.1278 19.933C84.1278 18.449 84.3518 17.063 84.7998 15.775C85.2618 14.487 85.9198 13.374 86.7738 12.436C87.6278 11.484 88.6708 10.742 89.9028 10.21C91.1348 9.664 92.5208 9.391 94.0608 9.391C95.3348 9.391 96.5108 9.608 97.5888 10.042C98.6808 10.462 99.6188 11.078 100.403 11.89C101.201 12.688 101.824 13.682 102.272 14.872C102.72 16.048 102.944 17.392 102.944 18.904C102.944 19.492 102.881 19.884 102.755 20.08C102.629 20.276 102.391 20.374 102.041 20.374H87.8238C87.8658 21.718 88.0478 22.887 88.3698 23.881C88.7058 24.875 89.1678 25.708 89.7558 26.38C90.3438 27.038 91.0438 27.535 91.8558 27.871C92.6678 28.193 93.5778 28.354 94.5858 28.354C95.5238 28.354 96.3288 28.249 97.0008 28.039C97.6868 27.815 98.2748 27.577 98.7648 27.325C99.2548 27.073 99.6608 26.842 99.9828 26.632C100.319 26.408 100.606 26.296 100.844 26.296C101.152 26.296 101.39 26.415 101.558 26.653L102.608 28.018ZM114.948 20.605C115.704 20.605 116.369 20.5 116.943 20.29C117.517 20.08 118 19.786 118.392 19.408C118.784 19.03 119.078 18.582 119.274 18.064C119.47 17.532 119.568 16.951 119.568 16.321C119.568 15.019 119.169 13.983 118.371 13.213C117.587 12.443 116.446 12.058 114.948 12.058C113.436 12.058 112.281 12.443 111.483 13.213C110.699 13.983 110.307 15.019 110.307 16.321C110.307 16.951 110.405 17.532 110.601 18.064C110.811 18.582 111.112 19.03 111.504 19.408C111.896 19.786 112.379 20.08 112.953 20.29C113.527 20.5 114.192 20.605 114.948 20.605ZM121.689 32.155C121.689 31.637 121.542 31.217 121.248 30.895C120.954 30.573 120.555 30.321 120.051 30.139C119.561 29.957 118.987 29.831 118.329 29.761C117.671 29.677 116.971 29.614 116.229 29.572C115.501 29.53 114.759 29.488 114.003 29.446C113.247 29.404 112.519 29.334 111.819 29.236C111.035 29.6 110.391 30.062 109.887 30.622C109.397 31.168 109.152 31.812 109.152 32.554C109.152 33.03 109.271 33.471 109.509 33.877C109.761 34.297 110.139 34.654 110.643 34.948C111.147 35.256 111.777 35.494 112.533 35.662C113.303 35.844 114.206 35.935 115.242 35.935C116.25 35.935 117.153 35.844 117.951 35.662C118.749 35.48 119.421 35.221 119.967 34.885C120.527 34.549 120.954 34.15 121.248 33.688C121.542 33.226 121.689 32.715 121.689 32.155ZM125.49 10.567V11.953C125.49 12.415 125.196 12.709 124.608 12.835L122.193 13.15C122.669 14.074 122.907 15.096 122.907 16.216C122.907 17.252 122.704 18.197 122.298 19.051C121.906 19.891 121.36 20.612 120.66 21.214C119.96 21.816 119.12 22.278 118.14 22.6C117.16 22.922 116.096 23.083 114.948 23.083C113.954 23.083 113.016 22.964 112.134 22.726C111.686 23.006 111.343 23.307 111.105 23.629C110.867 23.937 110.748 24.252 110.748 24.574C110.748 25.078 110.951 25.463 111.357 25.729C111.777 25.981 112.323 26.163 112.995 26.275C113.667 26.387 114.43 26.457 115.284 26.485C116.152 26.513 117.034 26.562 117.93 26.632C118.84 26.688 119.722 26.793 120.576 26.947C121.444 27.101 122.214 27.353 122.886 27.703C123.558 28.053 124.097 28.536 124.503 29.152C124.923 29.768 125.133 30.566 125.133 31.546C125.133 32.456 124.902 33.338 124.44 34.192C123.992 35.046 123.341 35.802 122.487 36.46C121.633 37.132 120.583 37.664 119.337 38.056C118.105 38.462 116.712 38.665 115.158 38.665C113.604 38.665 112.246 38.511 111.084 38.203C109.922 37.895 108.956 37.482 108.186 36.964C107.416 36.446 106.835 35.844 106.443 35.158C106.065 34.486 105.876 33.779 105.876 33.037C105.876 31.987 106.205 31.098 106.863 30.37C107.521 29.642 108.424 29.061 109.572 28.627C108.942 28.347 108.438 27.976 108.06 27.514C107.696 27.038 107.514 26.401 107.514 25.603C107.514 25.295 107.57 24.98 107.682 24.658C107.794 24.322 107.962 23.993 108.186 23.671C108.424 23.335 108.711 23.02 109.047 22.726C109.383 22.432 109.775 22.173 110.223 21.949C109.173 21.361 108.354 20.584 107.766 19.618C107.178 18.638 106.884 17.504 106.884 16.216C106.884 15.18 107.08 14.242 107.472 13.402C107.878 12.548 108.438 11.827 109.152 11.239C109.866 10.637 110.713 10.175 111.693 9.853C112.687 9.531 113.772 9.37 114.948 9.37C115.872 9.37 116.733 9.475 117.531 9.685C118.329 9.881 119.057 10.175 119.715 10.567H125.49ZM143.265 18.043C143.265 17.175 143.139 16.384 142.887 15.67C142.649 14.942 142.292 14.319 141.816 13.801C141.354 13.269 140.787 12.863 140.115 12.583C139.443 12.289 138.68 12.142 137.826 12.142C136.034 12.142 134.613 12.667 133.563 13.717C132.527 14.753 131.883 16.195 131.631 18.043H143.265ZM146.289 28.018C145.827 28.578 145.274 29.068 144.63 29.488C143.986 29.894 143.293 30.23 142.551 30.496C141.823 30.762 141.067 30.958 140.283 31.084C139.499 31.224 138.722 31.294 137.952 31.294C136.482 31.294 135.124 31.049 133.878 30.559C132.646 30.055 131.575 29.327 130.665 28.375C129.769 27.409 129.069 26.219 128.565 24.805C128.061 23.391 127.809 21.767 127.809 19.933C127.809 18.449 128.033 17.063 128.481 15.775C128.943 14.487 129.601 13.374 130.455 12.436C131.309 11.484 132.352 10.742 133.584 10.21C134.816 9.664 136.202 9.391 137.742 9.391C139.016 9.391 140.192 9.608 141.27 10.042C142.362 10.462 143.3 11.078 144.084 11.89C144.882 12.688 145.505 13.682 145.953 14.872C146.401 16.048 146.625 17.392 146.625 18.904C146.625 19.492 146.562 19.884 146.436 20.08C146.31 20.276 146.072 20.374 145.722 20.374H131.505C131.547 21.718 131.729 22.887 132.051 23.881C132.387 24.875 132.849 25.708 133.437 26.38C134.025 27.038 134.725 27.535 135.537 27.871C136.349 28.193 137.259 28.354 138.267 28.354C139.205 28.354 140.01 28.249 140.682 28.039C141.368 27.815 141.956 27.577 142.446 27.325C142.936 27.073 143.342 26.842 143.664 26.632C144 26.408 144.287 26.296 144.525 26.296C144.833 26.296 145.071 26.415 145.239 26.653L146.289 28.018ZM155.081 0.066999V31H151.343V0.066999H155.081ZM175.003 14.788C174.303 13.85 173.547 13.199 172.735 12.835C171.923 12.457 171.013 12.268 170.005 12.268C168.031 12.268 166.512 12.975 165.448 14.389C164.384 15.803 163.852 17.819 163.852 20.437C163.852 21.823 163.971 23.013 164.209 24.007C164.447 24.987 164.797 25.799 165.259 26.443C165.721 27.073 166.288 27.535 166.96 27.829C167.632 28.123 168.395 28.27 169.249 28.27C170.481 28.27 171.552 27.99 172.462 27.43C173.386 26.87 174.233 26.079 175.003 25.057V14.788ZM178.741 0.066999V31H176.515C175.983 31 175.647 30.741 175.507 30.223L175.171 27.64C174.261 28.732 173.225 29.614 172.063 30.286C170.901 30.958 169.557 31.294 168.031 31.294C166.813 31.294 165.707 31.063 164.713 30.601C163.719 30.125 162.872 29.432 162.172 28.522C161.472 27.612 160.933 26.478 160.555 25.12C160.177 23.762 159.988 22.201 159.988 20.437C159.988 18.869 160.198 17.413 160.618 16.069C161.038 14.711 161.64 13.535 162.424 12.541C163.208 11.547 164.167 10.77 165.301 10.21C166.449 9.636 167.737 9.349 169.165 9.349C170.467 9.349 171.58 9.573 172.504 10.021C173.442 10.455 174.275 11.064 175.003 11.848V0.066999H178.741ZM224.319 0.906998L214.932 31H211.278L203.655 8.047C203.585 7.823 203.515 7.585 203.445 7.333C203.389 7.081 203.326 6.815 203.256 6.535C203.186 6.815 203.116 7.081 203.046 7.333C202.976 7.585 202.906 7.823 202.836 8.047L195.171 31H191.517L182.13 0.906998H185.511C185.875 0.906998 186.176 0.997998 186.414 1.18C186.666 1.362 186.827 1.593 186.897 1.873L193.113 22.789C193.211 23.167 193.302 23.573 193.386 24.007C193.484 24.441 193.575 24.903 193.659 25.393C193.757 24.903 193.855 24.441 193.953 24.007C194.065 23.559 194.184 23.153 194.31 22.789L201.387 1.873C201.471 1.635 201.632 1.418 201.87 1.222C202.122 1.012 202.423 0.906998 202.773 0.906998H203.949C204.313 0.906998 204.607 0.997998 204.831 1.18C205.055 1.362 205.223 1.593 205.335 1.873L212.391 22.789C212.517 23.153 212.629 23.545 212.727 23.965C212.839 24.385 212.944 24.826 213.042 25.288C213.112 24.826 213.189 24.385 213.273 23.965C213.357 23.545 213.448 23.153 213.546 22.789L219.783 1.873C219.853 1.621 220.007 1.397 220.245 1.201C220.497 1.005 220.798 0.906998 221.148 0.906998H224.319ZM231.7 9.727V31H227.962V9.727H231.7ZM232.498 3.049C232.498 3.413 232.421 3.756 232.267 4.078C232.127 4.386 231.931 4.666 231.679 4.918C231.441 5.156 231.154 5.345 230.818 5.485C230.496 5.625 230.153 5.695 229.789 5.695C229.425 5.695 229.082 5.625 228.76 5.485C228.452 5.345 228.179 5.156 227.941 4.918C227.703 4.666 227.514 4.386 227.374 4.078C227.234 3.756 227.164 3.413 227.164 3.049C227.164 2.685 227.234 2.342 227.374 2.02C227.514 1.684 227.703 1.397 227.941 1.159C228.179 0.906999 228.452 0.710999 228.76 0.570997C229.082 0.430998 229.425 0.360998 229.789 0.360998C230.153 0.360998 230.496 0.430998 230.818 0.570997C231.154 0.710999 231.441 0.906999 231.679 1.159C231.931 1.397 232.127 1.684 232.267 2.02C232.421 2.342 232.498 2.685 232.498 3.049ZM241.79 9.727V32.575C241.79 33.429 241.678 34.22 241.454 34.948C241.23 35.69 240.873 36.334 240.383 36.88C239.893 37.426 239.263 37.853 238.493 38.161C237.737 38.483 236.827 38.644 235.763 38.644C235.315 38.644 234.902 38.609 234.524 38.539C234.146 38.469 233.768 38.364 233.39 38.224L233.537 36.208C233.565 36.082 233.614 35.984 233.684 35.914C233.74 35.858 233.824 35.823 233.936 35.809C234.048 35.795 234.195 35.788 234.377 35.788C234.545 35.802 234.762 35.809 235.028 35.809C236.12 35.809 236.897 35.55 237.359 35.032C237.821 34.528 238.052 33.709 238.052 32.575V9.727H241.79ZM242.567 3.049C242.567 3.413 242.49 3.756 242.336 4.078C242.196 4.386 242 4.666 241.748 4.918C241.51 5.156 241.23 5.345 240.908 5.485C240.586 5.625 240.243 5.695 239.879 5.695C239.515 5.695 239.172 5.625 238.85 5.485C238.542 5.345 238.269 5.156 238.031 4.918C237.793 4.666 237.604 4.386 237.464 4.078C237.324 3.756 237.254 3.413 237.254 3.049C237.254 2.685 237.324 2.342 237.464 2.02C237.604 1.684 237.793 1.397 238.031 1.159C238.269 0.906999 238.542 0.710999 238.85 0.570997C239.172 0.430998 239.515 0.360998 239.879 0.360998C240.243 0.360998 240.586 0.430998 240.908 0.570997C241.23 0.710999 241.51 0.906999 241.748 1.159C242 1.397 242.196 1.684 242.336 2.02C242.49 2.342 242.567 2.685 242.567 3.049ZM262.611 11.323C262.611 11.589 262.562 11.848 262.464 12.1C262.38 12.352 262.261 12.569 262.107 12.751L250.578 28.081H262.212V31H246.189V29.446C246.189 29.264 246.231 29.054 246.315 28.816C246.399 28.564 246.525 28.326 246.693 28.102L258.285 12.667H246.84V9.727H262.611V11.323ZM280.75 18.043C280.75 17.175 280.624 16.384 280.372 15.67C280.134 14.942 279.777 14.319 279.301 13.801C278.839 13.269 278.272 12.863 277.6 12.583C276.928 12.289 276.165 12.142 275.311 12.142C273.519 12.142 272.098 12.667 271.048 13.717C270.012 14.753 269.368 16.195 269.116 18.043H280.75ZM283.774 28.018C283.312 28.578 282.759 29.068 282.115 29.488C281.471 29.894 280.778 30.23 280.036 30.496C279.308 30.762 278.552 30.958 277.768 31.084C276.984 31.224 276.207 31.294 275.437 31.294C273.967 31.294 272.609 31.049 271.363 30.559C270.131 30.055 269.06 29.327 268.15 28.375C267.254 27.409 266.554 26.219 266.05 24.805C265.546 23.391 265.294 21.767 265.294 19.933C265.294 18.449 265.518 17.063 265.966 15.775C266.428 14.487 267.086 13.374 267.94 12.436C268.794 11.484 269.837 10.742 271.069 10.21C272.301 9.664 273.687 9.391 275.227 9.391C276.501 9.391 277.677 9.608 278.755 10.042C279.847 10.462 280.785 11.078 281.569 11.89C282.367 12.688 282.99 13.682 283.438 14.872C283.886 16.048 284.11 17.392 284.11 18.904C284.11 19.492 284.047 19.884 283.921 20.08C283.795 20.276 283.557 20.374 283.207 20.374H268.99C269.032 21.718 269.214 22.887 269.536 23.881C269.872 24.875 270.334 25.708 270.922 26.38C271.51 27.038 272.21 27.535 273.022 27.871C273.834 28.193 274.744 28.354 275.752 28.354C276.69 28.354 277.495 28.249 278.167 28.039C278.853 27.815 279.441 27.577 279.931 27.325C280.421 27.073 280.827 26.842 281.149 26.632C281.485 26.408 281.772 26.296 282.01 26.296C282.318 26.296 282.556 26.415 282.724 26.653L283.774 28.018ZM292.25 13.99C292.922 12.534 293.748 11.4 294.728 10.588C295.708 9.762 296.905 9.349 298.319 9.349C298.767 9.349 299.194 9.398 299.6 9.496C300.02 9.594 300.391 9.748 300.713 9.958L300.44 12.751C300.356 13.101 300.146 13.276 299.81 13.276C299.614 13.276 299.327 13.234 298.949 13.15C298.571 13.066 298.144 13.024 297.668 13.024C296.996 13.024 296.394 13.122 295.862 13.318C295.344 13.514 294.875 13.808 294.455 14.2C294.049 14.578 293.678 15.054 293.342 15.628C293.02 16.188 292.726 16.832 292.46 17.56V31H288.701V9.727H290.843C291.249 9.727 291.529 9.804 291.683 9.958C291.837 10.112 291.942 10.378 291.998 10.756L292.25 13.99Z" fill="black"/>
<path d="M121.568 40C118.424 40 115.467 41.2247 113.243 43.4482L104.524 52.1679C103.144 53.547 101.311 54.3067 99.3603 54.3067L97.8134 54.3067C97.0244 52.8865 95.51 51.9223 93.7732 51.9223L86.6199 51.9223C84.0724 51.9223 82 53.9946 82 56.5421L82 75.6177C82 78.1652 84.0724 80.2376 86.6199 80.2376L93.7732 80.2376C95.51 80.2376 97.0244 79.2734 97.8134 77.8531L99.3603 77.8531C101.311 77.8531 103.145 78.6126 104.524 79.992L113.243 88.7116C115.467 90.9351 118.424 92.1598 121.568 92.1598L165.307 92.1598C167.148 92.1598 168.824 91.4448 170.076 90.2791C171.327 91.4448 173.003 92.1598 174.844 92.1598C176.686 92.1598 178.362 91.4448 179.613 90.2791C180.865 91.4448 182.541 92.1598 184.382 92.1598C186.223 92.1598 187.9 91.4448 189.151 90.2791C190.403 91.4448 192.079 92.1598 193.92 92.1598C195.761 92.1598 197.437 91.4448 198.689 90.2791C199.941 91.4448 201.617 92.1598 203.458 92.1598L208.227 92.1598C214.718 92.1598 220 86.8783 220 80.3866L220 51.7732C220 45.2816 214.718 40 208.227 40L203.458 40C201.617 40 199.941 40.715 198.689 41.8807C197.437 40.715 195.761 40 193.92 40C192.079 40 190.403 40.715 189.151 41.8807C187.9 40.715 186.223 40 184.382 40C182.541 40 180.865 40.715 179.613 41.8807C178.362 40.715 176.686 40 174.844 40C173.003 40 171.327 40.715 170.076 41.8807C168.824 40.715 167.148 40 165.307 40L121.568 40ZM86.6199 75.7667C86.5379 75.7667 86.4708 75.7 86.4708 75.6177L86.4708 56.5421C86.4708 56.4599 86.5379 56.3931 86.6199 56.3931L93.7732 56.3931C93.8552 56.3931 93.9222 56.4599 93.9222 56.5421L93.9222 75.6177C93.9222 75.7 93.8552 75.7667 93.7732 75.7667L86.6199 75.7667ZM121.568 87.689C119.618 87.689 117.784 86.9295 116.405 85.5501L107.685 76.8305C105.461 74.607 102.505 73.3823 99.3603 73.3823L98.3931 73.3823L98.3931 58.7775L99.3603 58.7775C102.505 58.7775 105.461 57.5531 107.686 55.3293L116.405 46.6097C117.784 45.2306 119.618 44.4708 121.568 44.4708L165.307 44.4708C166.704 44.4708 167.84 45.6073 167.84 47.0043L167.84 85.1555C167.84 86.5525 166.704 87.689 165.307 87.689L121.568 87.689ZM174.844 44.4708C176.241 44.4708 177.378 45.6073 177.378 47.0043L177.378 85.1555C177.378 86.5525 176.241 87.689 174.844 87.689C173.448 87.689 172.311 86.5525 172.311 85.1555L172.311 47.0043C172.311 45.6073 173.448 44.4708 174.844 44.4708ZM184.382 44.4708C185.779 44.4708 186.916 45.6073 186.916 47.0043L186.916 85.1555C186.916 86.5525 185.779 87.689 184.382 87.689C182.985 87.689 181.849 86.5525 181.849 85.1555L181.849 47.0043C181.849 45.6073 182.985 44.4708 184.382 44.4708ZM193.92 44.4708C195.317 44.4708 196.454 45.6073 196.454 47.0043L196.454 85.1555C196.454 86.5525 195.317 87.689 193.92 87.689C192.523 87.689 191.387 86.5525 191.387 85.1555L191.387 47.0043C191.387 45.6073 192.523 44.4708 193.92 44.4708ZM208.227 44.4708C212.254 44.4708 215.529 47.7468 215.529 51.7732L215.529 80.3866C215.529 84.413 212.254 87.689 208.227 87.689L203.458 87.689C202.061 87.689 200.924 86.5525 200.924 85.1555L200.924 47.0043C200.924 45.6073 202.061 44.4708 203.458 44.4708L208.227 44.4708Z" fill="black"/>
<path d="M158.004 66.0799C158.004 59.5882 152.723 54.3067 146.231 54.3067C140.554 54.3067 128.287 62.5819 125.885 64.2406C125.281 64.6579 124.92 65.3455 124.92 66.0799C124.92 66.8143 125.281 67.5019 125.885 67.9192C128.287 69.5779 140.554 77.8531 146.231 77.8531C152.723 77.8531 158.004 72.5716 158.004 66.0799ZM135.864 68.929C134.121 67.9192 132.489 66.9017 131.2 66.074C136.608 62.5989 143.566 58.7775 146.231 58.7775C150.258 58.7775 153.533 62.0535 153.533 66.0799C153.533 70.1064 150.258 73.3823 146.231 73.3823C145.424 73.3823 142.797 72.9483 135.864 68.929Z" fill="black"/>
</svg>
